<svg width="42" height="51" viewBox="0 0 84 102" fill="none" xmlns="http://www.w3.org/2000/svg">
<g filter="url(#filter0_d_15607_2012)">
<path d="M42 5.66211C24.3269 5.66211 10 19.989 10 37.6621C10 50.0151 16.9995 60.7332 27.2488 66.0667L41.7541 86.6621L56.7389 66.0732C66.9949 60.7418 74 50.02 74 37.6621C74 19.989 59.6731 5.66211 42 5.66211Z" fill="url(#paint0_linear_15607_2012)"/>
<path d="M42 51.2411C45.4991 48.1964 48.1768 45.2759 50.033 42.4797C51.8891 39.6835 52.8172 37.2345 52.8172 35.1326C52.8172 31.9631 51.7814 29.3575 49.7096 27.3158C47.6379 25.274 45.068 24.2532 42 24.2532C38.932 24.2532 36.3621 25.274 34.2904 27.3158C32.2186 29.3575 31.1828 31.9631 31.1828 35.1326C31.1828 37.2345 32.1109 39.6835 33.967 42.4797C35.8232 45.2759 38.5009 48.1964 42 51.2411ZM42 53.7218C41.6515 53.7218 41.3029 53.6633 40.9544 53.5463C40.6059 53.4293 40.2906 53.2482 40.0085 53.003C38.4035 51.5654 36.9016 50.0848 35.5029 48.5614C34.1041 47.0379 32.8883 45.515 31.8553 43.9926C30.8223 42.4703 30.0048 40.9613 29.4029 39.4657C28.801 37.97 28.5 36.5257 28.5 35.1326C28.5 31.1206 29.8351 27.8725 32.5053 25.3883C35.1755 22.9042 38.3404 21.6621 42 21.6621C45.6596 21.6621 48.8245 22.9042 51.4947 25.3883C54.1649 27.8725 55.5 31.1206 55.5 35.1326C55.5 36.5257 55.199 37.9673 54.5971 39.4573C53.9952 40.9474 53.1806 42.4563 52.1533 43.9843C51.1261 45.5122 49.9131 47.0351 48.5144 48.553C47.1156 50.0709 45.6137 51.5486 44.0086 52.9863C43.7307 53.2315 43.4149 53.4154 43.0612 53.538C42.7074 53.6605 42.3537 53.7218 42 53.7218ZM42.003 37.9444C42.893 37.9444 43.6538 37.6364 44.2855 37.0203C44.9172 36.4043 45.2331 35.6637 45.2331 34.7987C45.2331 33.9336 44.9162 33.194 44.2825 32.5799C43.6488 31.9659 42.8869 31.6589 41.997 31.6589C41.107 31.6589 40.3462 31.9669 39.7145 32.5829C39.0828 33.1989 38.7669 33.9395 38.7669 34.8046C38.7669 35.6697 39.0838 36.4092 39.7175 37.0233C40.3512 37.6373 41.1131 37.9444 42.003 37.9444Z" fill="#FCFCFC"/>
</g>
<defs>
<filter id="filter0_d_15607_2012" x="0" y="0.662109" width="84" height="101" filterUnits="userSpaceOnUse" color-interpolation-filters="sRGB">
<feFlood flood-opacity="0" result="BackgroundImageFix"/>
<feColorMatrix in="SourceAlpha" type="matrix" values="0 0 0 0 0 0 0 0 0 0 0 0 0 0 0 0 0 0 127 0" result="hardAlpha"/>
<feOffset dy="5"/>
<feGaussianBlur stdDeviation="5"/>
<feComposite in2="hardAlpha" operator="out"/>
<feColorMatrix type="matrix" values="0 0 0 0 0.18503 0 0 0 0 0.180716 0 0 0 0 0.180716 0 0 0 0.1 0"/>
<feBlend mode="normal" in2="BackgroundImageFix" result="effect1_dropShadow_15607_2012"/>
<feBlend mode="normal" in="SourceGraphic" in2="effect1_dropShadow_15607_2012" result="shape"/>
</filter>
<linearGradient id="paint0_linear_15607_2012" x1="10.0873" y1="5.66211" x2="91.457" y2="31.1809" gradientUnits="userSpaceOnUse">
<stop stop-color="#E35D07"/>
<stop offset="1" stop-color="#F4AA72"/>
</linearGradient>
</defs>
</svg>
