<svg width="32" height="32" viewBox="0 0 32 32" fill="none" xmlns="http://www.w3.org/2000/svg">
<path d="M14.8236 30.8236V29.2851C11.5556 28.9492 8.80442 27.6642 6.57011 25.4299C4.33583 23.1956 3.05076 20.4444 2.71492 17.1764H1.17644C0.843102 17.1764 0.563702 17.0637 0.338237 16.8381C0.112746 16.6125 0 16.333 0 15.9995C0 15.666 0.112746 15.3866 0.338237 15.1614C0.563728 14.9362 0.843128 14.8236 1.17644 14.8236H2.71492C3.05076 11.5556 4.33583 8.80442 6.57011 6.57011C8.80442 4.33582 11.5556 3.05076 14.8236 2.71491V1.17644C14.8236 0.843127 14.9363 0.563728 15.1619 0.338237C15.3875 0.112746 15.667 0 16.0005 0C16.334 0 16.6134 0.112746 16.8386 0.338237C17.0638 0.563728 17.1764 0.843127 17.1764 1.17644V2.71491C20.4444 3.05076 23.1956 4.33582 25.4299 6.57011C27.6642 8.80442 28.9492 11.5556 29.2851 14.8236H30.8236C31.1569 14.8236 31.4363 14.9363 31.6618 15.1619C31.8873 15.3875 32 15.667 32 16.0005C32 16.334 31.8873 16.6134 31.6618 16.8386C31.4363 17.0638 31.1569 17.1764 30.8236 17.1764H29.2851C28.9492 20.4444 27.6642 23.1956 25.4299 25.4299C23.1956 27.6642 20.4444 28.9492 17.1764 29.2851V30.8236C17.1764 31.1569 17.0637 31.4363 16.8381 31.6618C16.6125 31.8873 16.333 32 15.9995 32C15.666 32 15.3866 31.8873 15.1614 31.6618C14.9362 31.4363 14.8236 31.1569 14.8236 30.8236ZM16 26.9804C19.0327 26.9804 21.6209 25.9085 23.7647 23.7647C25.9085 21.6209 26.9804 19.0327 26.9804 16C26.9804 12.9673 25.9085 10.3791 23.7647 8.23526C21.6209 6.09145 19.0327 5.01955 16 5.01955C12.9673 5.01955 10.3791 6.09145 8.23526 8.23526C6.09145 10.3791 5.01955 12.9673 5.01955 16C5.01955 19.0327 6.09145 21.6209 8.23526 23.7647C10.3791 25.9085 12.9673 26.9804 16 26.9804ZM16 21.4902C14.4902 21.4902 13.1977 20.9526 12.1226 19.8774C11.0474 18.8023 10.5098 17.5098 10.5098 16C10.5098 14.4902 11.0474 13.1977 12.1226 12.1226C13.1977 11.0474 14.4902 10.5098 16 10.5098C17.5098 10.5098 18.8023 11.0474 19.8774 12.1226C20.9526 13.1977 21.4902 14.4902 21.4902 16C21.4902 17.5098 20.9526 18.8023 19.8774 19.8774C18.8023 20.9526 17.5098 21.4902 16 21.4902ZM16 19.1373C16.8627 19.1373 17.6013 18.8301 18.2157 18.2157C18.8301 17.6013 19.1373 16.8627 19.1373 16C19.1373 15.1373 18.8301 14.3987 18.2157 13.7843C17.6013 13.1699 16.8627 12.8627 16 12.8627C15.1373 12.8627 14.3987 13.1699 13.7843 13.7843C13.1699 14.3987 12.8627 15.1373 12.8627 16C12.8627 16.8627 13.1699 17.6013 13.7843 18.2157C14.3987 18.8301 15.1373 19.1373 16 19.1373Z" fill="#FCFCFC"/>
</svg>
